<svg xmlns="http://www.w3.org/2000/svg" version="1.1" xmlns:xlink="http://www.w3.org/1999/xlink" xmlns:svgjs="http://svgjs.dev/svgjs" width="2000" height="631" viewBox="0 0 2000 631"><g transform="matrix(1,0,0,1,-1.2121212121212466,-1.202463673537693)"><svg viewBox="0 0 396 125" data-background-color="#ffffff" preserveAspectRatio="xMidYMid meet" height="631" width="2000" xmlns="http://www.w3.org/2000/svg" xmlns:xlink="http://www.w3.org/1999/xlink"><g id="tight-bounds" transform="matrix(1,0,0,1,0.2400000000000091,0.2382059575153903)"><svg viewBox="0 0 395.52 124.52358808496922" height="124.52358808496922" width="395.52"><g><svg viewBox="0 0 626.4332481422222 197.22318910394262" height="124.52358808496922" width="395.52"><g transform="matrix(1,0,0,1,0,27.257329318996412)"><svg viewBox="0 0 395.52 142.7085304659498" height="142.7085304659498" width="395.52"><g id="textblocktransform"><svg viewBox="0 0 395.52 142.7085304659498" height="142.7085304659498" width="395.52" id="textblock"><g><svg viewBox="0 0 395.52 142.7085304659498" height="142.7085304659498" width="395.52"><g transform="matrix(1,0,0,1,0,0)"><svg width="395.52" viewBox="4.35 -35 125.53999999999999 45.3" height="142.7085304659498" data-palette-color="#222222"><g class="wordmark-text-0" data-fill-palette-color="primary" id="text-0"><path d="M26.55-34.5L30.9-34.5 30.9-1.75Q30.9 0 29.2 0L29.2 0 24.9 0Q24.15 0 23.7-0.35 23.25-0.7 22.95-1.4L22.95-1.4 11.3-25.85Q10.85-26.85 10.25-28.1 9.65-29.35 9.35-30.4L9.35-30.4 8.55-30.4Q8.65-29.3 8.7-28.15 8.75-27 8.75-25.85L8.75-25.85 8.75 0 4.35 0 4.35-32.75Q4.35-34.5 6.1-34.5L6.1-34.5 10.25-34.5Q11-34.5 11.45-34.15 11.9-33.8 12.2-33.1L12.2-33.1 23.5-9.25Q24.05-8.2 24.68-6.88 25.3-5.55 25.85-4.25L25.85-4.25 26.7-4.25Q26.65-5.6 26.6-6.9 26.55-8.2 26.55-9.5L26.55-9.5 26.55-34.5ZM49.15-24.95L49.15-24.95Q54.65-24.95 57.12-22.95 59.6-20.95 59.6-17L59.6-17Q59.65-13.75 58.25-11.93 56.85-10.1 53.8-10.1L53.8-10.1 39.6-10.1 39.6-13.4 52.7-13.4Q54.35-13.4 54.85-14.53 55.35-15.65 55.35-17L55.35-17Q55.3-19.35 53.95-20.35 52.6-21.35 49.35-21.35L49.35-21.35Q46.7-21.35 45.17-20.58 43.65-19.8 43.02-17.88 42.4-15.95 42.4-12.5L42.4-12.5Q42.4-8.6 43.17-6.55 43.95-4.5 45.65-3.75 47.35-3 50.15-3L50.15-3Q52.1-3 54.42-3.18 56.75-3.35 58.6-3.6L58.6-3.6 59.05-0.75Q57.9-0.3 56.22 0 54.55 0.3 52.77 0.45 51 0.6 49.6 0.6L49.6 0.6Q45.4 0.6 42.85-0.68 40.3-1.95 39.12-4.78 37.95-7.6 37.95-12.25L37.95-12.25Q37.95-17.05 39.12-19.83 40.3-22.6 42.77-23.78 45.25-24.95 49.15-24.95ZM66.05-35L70.3-35 70.25-6.7Q70.25-5.1 71.12-4.28 72-3.45 73.59-3.45L73.59-3.45 75.95-3.45 76.45-0.2Q76 0 75.17 0.15 74.34 0.3 73.47 0.38 72.59 0.45 72 0.45L72 0.45Q69.3 0.45 67.67-1.15 66.05-2.75 66.05-5.75L66.05-5.75 66.05-35ZM92.34-24.95L92.34-24.95Q95.04-24.95 96.92-24.23 98.79-23.5 99.74-21.8 100.69-20.1 100.69-17.15L100.69-17.15 100.69 0 97.34 0 96.69-5.3 96.39-5.85 96.39-17.15Q96.39-19.4 95.37-20.38 94.34-21.35 91.44-21.35L91.44-21.35Q89.54-21.35 86.67-21.15 83.79-20.95 80.99-20.7L80.99-20.7 80.59-23.85Q82.29-24.15 84.32-24.4 86.34-24.65 88.44-24.8 90.54-24.95 92.34-24.95ZM86.24-15L98.69-15 98.64-11.8 86.99-11.75Q85.24-11.7 84.54-10.83 83.84-9.95 83.84-8.4L83.84-8.4 83.84-6.85Q83.84-4.95 84.74-4.08 85.64-3.2 87.64-3.2L87.64-3.2Q89.04-3.2 90.82-3.73 92.59-4.25 94.39-5.35 96.19-6.45 97.69-8.15L97.69-8.15 97.69-5Q97.14-4.3 96.12-3.38 95.09-2.45 93.67-1.58 92.24-0.7 90.52-0.13 88.79 0.45 86.79 0.45L86.79 0.45Q84.64 0.45 82.99-0.33 81.34-1.1 80.42-2.63 79.49-4.15 79.49-6.35L79.49-6.35 79.49-9Q79.49-11.85 81.27-13.43 83.04-15 86.24-15L86.24-15ZM125.29-24.35L129.89-24.35 120.14 1.35Q119.54 2.95 118.64 4.5 117.74 6.05 116.47 7.33 115.19 8.6 113.47 9.4 111.74 10.2 109.49 10.3L109.49 10.3 109.09 7.5Q112.04 6.55 113.64 4.95 115.24 3.35 116.19 1.05L116.19 1.05 117.39-1.85Q117.79-2.85 118.19-4.05 118.59-5.25 118.94-6.2L118.94-6.2 125.29-24.35ZM105.29-24.35L109.84-24.35 116.29-6.2Q116.54-5.45 116.79-4.73 117.04-4 117.19-3.25L117.19-3.25 118.34-3.25 116.94 0 115.64 0Q115.14 0 114.72-0.3 114.29-0.6 114.14-1.1L114.14-1.1 105.29-24.35Z" fill="#222222" data-fill-palette-color="primary"></path></g></svg></g></svg></g></svg></g></svg></g><g transform="matrix(1,0,0,1,429.21005903827955,0)"><svg viewBox="0 0 197.22318910394262 197.22318910394262" height="197.22318910394262" width="197.22318910394262"><g><svg></svg></g><g id="icon-0"><svg viewBox="0 0 197.22318910394262 197.22318910394262" height="197.22318910394262" width="197.22318910394262"><g><path transform="scale(1.97223,1.97223)" d="M30 100c-16.569 0-30-13.431-30-30v-40c0-16.569 13.431-30 30-30h40c16.569 0 30 13.431 30 30v40c0 16.569-13.431 30-30 30z" fill="#7fc37e" fill-rule="nonzero" stroke="none" stroke-width="1" stroke-linecap="butt" stroke-linejoin="miter" stroke-miterlimit="10" stroke-dasharray="" stroke-dashoffset="0" font-family="none" font-weight="none" font-size="none" text-anchor="none" style="mix-blend-mode: normal" data-fill-palette-color="accent"></path></g><g transform="matrix(1,0,0,1,39.444637820788536,43.6839564575651)"><svg viewBox="0 0 118.33391346236554 109.85527618881241" height="109.85527618881241" width="118.33391346236554"><g><svg xmlns="http://www.w3.org/2000/svg" xmlns:xlink="http://www.w3.org/1999/xlink" version="1.1" x="0" y="0" viewBox="4.75 7.833674800908083 86.555 80.35332519909191" enable-background="new 0 0 96 96" xml:space="preserve" height="109.85527618881241" width="118.33391346236554" class="icon-dxe-0" data-fill-palette-color="quaternary" id="dxe-0"><path d="M79.212 31.348L76.936 30.665 74.18 30.81C73.207 24.02 70.924 12.927 66.126 9.644 64.827 8.755 63.419 8.479 61.945 8.814A5.06 5.06 0 0 0 59.088 7.837C50.94 7.56 47.433 24.661 46.275 32.274L36.82 32.77 35.058 47.12H8.866A4.12 4.12 0 0 0 4.75 51.236V84.052A4.12 4.12 0 0 0 8.866 88.168H61.034A4.1 4.1 0 0 0 64.511 86.232L74.809 88.187 91.305 83.732 86.357 30.597zM65.278 10.882C69.705 13.91 71.866 25.316 72.675 30.889L65.193 31.282C65.922 25.149 66.549 14.761 63.283 10.197 63.973 10.226 64.634 10.441 65.278 10.882M61.591 10.511C61.69 10.614 61.794 10.701 61.888 10.819 65.101 14.816 64.391 25.338 63.664 31.362L57.186 31.702C56.241 19.752 57.832 12.134 61.591 10.511M59.033 9.336C59.433 9.35 59.798 9.439 60.148 9.561 55.334 12.633 54.984 22.944 55.682 31.781L47.796 32.195C49.157 23.407 52.69 9.093 59.033 9.336M63.65 84.051C63.65 84.216 63.63 84.375 63.602 84.531A2.6 2.6 0 0 1 62.862 85.918 2.6 2.6 0 0 1 61.035 86.667H8.866A2.62 2.62 0 0 1 6.25 84.051V51.235A2.62 2.62 0 0 1 8.866 48.619H61.035A2.62 2.62 0 0 1 63.651 51.235zM74.063 86.517L65.074 84.811C65.12 84.564 65.151 84.311 65.151 84.051V51.235A4.12 4.12 0 0 0 61.035 47.119H36.569L38.155 34.202 46.056 33.787C45.954 34.535 45.886 35.102 45.847 35.452H44.297V36.952H48.964V35.452H47.357A76 76 0 0 1 47.576 33.707L63.471 32.873A80 80 0 0 1 63.081 35.452H61.184V36.952H65.85V35.452H64.604C64.698 34.894 64.844 33.973 65.003 32.793L76.066 32.212zM77.56 32.418L78.392 32.668V76.372L75.69 83.126zM76.034 86.301L79.513 77.604 88.576 82.914zM79.891 76.086V32.785L85.004 32.246 89.617 81.786z" fill="#222222" data-fill-palette-color="quaternary"></path><path d="M53.953 72.853A5.2 5.2 0 0 0 51.008 73.764 5.2 5.2 0 0 0 48.063 72.853 5.244 5.244 0 0 0 42.825 78.091C42.825 79.056 43.106 79.95 43.563 80.727A5.24 5.24 0 0 0 45.476 82.618 5.2 5.2 0 0 0 48.063 83.329C48.322 83.329 48.57 83.289 48.819 83.252A5.2 5.2 0 0 0 51.007 82.418C51.847 82.992 52.861 83.329 53.952 83.329A5.2 5.2 0 0 0 55.649 83.022C57.702 82.313 59.19 80.382 59.19 78.091A5.243 5.243 0 0 0 53.953 72.853M49.876 81.339A3.7 3.7 0 0 1 48.871 81.735C48.61 81.793 48.341 81.829 48.062 81.829A3.7 3.7 0 0 1 45.967 81.184 3.74 3.74 0 0 1 44.324 78.091 3.74 3.74 0 0 1 48.062 74.353C48.723 74.353 49.336 74.541 49.875 74.843 49.16 75.739 48.714 76.858 48.714 78.091S49.161 80.443 49.876 81.339M53.953 81.829A3.7 3.7 0 0 1 52.14 81.339 3.7 3.7 0 0 1 51.008 80.365C50.519 79.733 50.216 78.95 50.216 78.091S50.519 76.449 51.008 75.817A3.8 3.8 0 0 1 52.14 74.843 3.7 3.7 0 0 1 53.953 74.353C56.014 74.353 57.691 76.03 57.691 78.091S56.014 81.829 53.953 81.829" fill="#222222" data-fill-palette-color="quaternary"></path><path d="M21.186 56.477H11.412V63.803H21.186zM19.686 62.303H12.912V57.977H19.686z" fill="#222222" data-fill-palette-color="quaternary"></path><path d="M53.301 66.052H11.412V71.128H53.301zM51.801 69.628H12.912V67.552H51.801z" fill="#222222" data-fill-palette-color="quaternary"></path><polygon points="12.162,78.932 12.162,79.682 19.313,79.682 19.313,78.932 19.313,78.182 12.162,78.182 " fill="#222222" data-fill-palette-color="quaternary"></polygon><polygon points="24.222,78.182 24.222,78.932 24.222,79.682 31.059,79.682 31.375,79.682 31.375,78.932 31.375,78.182   31.243,78.182 " fill="#222222" data-fill-palette-color="quaternary"></polygon></svg></g></svg></g></svg></g></svg></g></svg></g><defs></defs></svg><rect width="395.52" height="124.52358808496922" fill="none" stroke="none" visibility="hidden"></rect></g></svg></g></svg>